<svg width="161" height="62" viewBox="0 0 161 62" fill="none" xmlns="http://www.w3.org/2000/svg">
<path d="M15.4688 12.3125C15.9375 12.4583 16.3646 12.6667 16.75 12.9375C17.1354 13.2083 17.4635 13.5573 17.7344 13.9844C18.0052 14.401 18.2135 14.8958 18.3594 15.4688C18.5052 16.0417 18.5781 16.6979 18.5781 17.4375V18.5625C18.5781 22.1875 16.7656 24 13.1406 24H0.875V1.59375H12.5C16.125 1.59375 17.9375 3.41146 17.9375 7.04688V7.45312C17.9375 8.71354 17.7344 9.74479 17.3281 10.5469C16.9323 11.3385 16.3125 11.9271 15.4688 12.3125ZM4.01562 14.2344V20.8594H13.0469C13.8906 20.8594 14.5 20.6615 14.875 20.2656C15.25 19.8698 15.4375 19.25 15.4375 18.4062V16.6719C15.4375 15.8177 15.25 15.1979 14.875 14.8125C14.5 14.4271 13.8906 14.2344 13.0469 14.2344H4.01562ZM4.01562 4.73438V11.1094H12.625C13.3958 11.0781 13.9479 10.8698 14.2812 10.4844C14.625 10.0885 14.7969 9.48438 14.7969 8.67188V7.20312C14.7969 6.34896 14.6094 5.72396 14.2344 5.32812C13.8594 4.93229 13.25 4.73438 12.4062 4.73438H4.01562ZM26.125 10.4375V24H23.0625V7.35938H26.125V10.2969C26.1458 9.89062 26.2396 9.51042 26.4062 9.15625C26.5729 8.79167 26.7917 8.47917 27.0625 8.21875C27.3438 7.94792 27.6667 7.73958 28.0312 7.59375C28.3958 7.4375 28.7865 7.35938 29.2031 7.35938H32.4688C32.8958 7.35938 33.2917 7.44271 33.6562 7.60938C34.0312 7.76562 34.3594 7.98438 34.6406 8.26562C34.9219 8.53646 35.1406 8.85938 35.2969 9.23438C35.4635 9.60938 35.5469 10.0104 35.5469 10.4375V13.25H32.4688V10.4375H26.125ZM53.4531 17.25H42.4375V20.9219H53.4531V24H42.4375C42.0208 24 41.625 23.9219 41.25 23.7656C40.875 23.599 40.5469 23.3802 40.2656 23.1094C39.9948 22.8281 39.776 22.5 39.6094 22.125C39.4531 21.75 39.375 21.349 39.375 20.9219V10.4375C39.375 10.0104 39.4531 9.60938 39.6094 9.23438C39.776 8.85938 39.9948 8.53646 40.2656 8.26562C40.5469 7.98438 40.875 7.76562 41.25 7.60938C41.625 7.44271 42.0208 7.35938 42.4375 7.35938H50.375C50.8021 7.35938 51.2031 7.44271 51.5781 7.60938C51.9531 7.76562 52.276 7.98438 52.5469 8.26562C52.8281 8.53646 53.0469 8.85938 53.2031 9.23438C53.3698 9.60938 53.4531 10.0104 53.4531 10.4375V17.25ZM42.4375 10.4375V14.1719H50.375V10.4375H42.4375ZM58.5938 10.4375C58.5938 10.0104 58.6719 9.60938 58.8281 9.23438C58.9948 8.85938 59.2135 8.53646 59.4844 8.26562C59.7656 7.98438 60.0938 7.76562 60.4688 7.60938C60.8438 7.44271 61.2396 7.35938 61.6562 7.35938H70.2344V0.953125H73.3125V24H70.2344V21.1875C70.2031 21.5729 70.099 21.9375 69.9219 22.2812C69.7448 22.625 69.5156 22.9271 69.2344 23.1875C68.9635 23.4375 68.651 23.6354 68.2969 23.7812C67.9427 23.9271 67.5677 24 67.1719 24H61.6562C61.2396 24 60.8438 23.9219 60.4688 23.7656C60.0938 23.599 59.7656 23.3802 59.4844 23.1094C59.2135 22.8281 58.9948 22.5 58.8281 22.125C58.6719 21.75 58.5938 21.349 58.5938 20.9219V10.4375ZM61.6562 20.9219H70.2344V10.4375H61.6562V20.9219ZM78.4375 16.7344C78.4375 16.3073 78.5156 15.9115 78.6719 15.5469C78.8385 15.1719 79.0573 14.8438 79.3281 14.5625C79.6094 14.2812 79.9375 14.0625 80.3125 13.9062C80.6875 13.7396 81.0833 13.6562 81.5 13.6562H89.4375V10.4375H79.3906V7.35938H89.4375C89.8646 7.35938 90.2656 7.44271 90.6406 7.60938C91.0156 7.76562 91.3385 7.98438 91.6094 8.26562C91.8906 8.53646 92.1094 8.85938 92.2656 9.23438C92.4323 9.60938 92.5156 10.0104 92.5156 10.4375V24H89.4375V21.1875C89.4062 21.5729 89.3021 21.9375 89.125 22.2812C88.9479 22.625 88.7188 22.9271 88.4375 23.1875C88.1667 23.4375 87.8542 23.6354 87.5 23.7812C87.1458 23.9271 86.7708 24 86.375 24H81.5C81.0833 24 80.6875 23.9219 80.3125 23.7656C79.9375 23.599 79.6094 23.3802 79.3281 23.1094C79.0573 22.8281 78.8385 22.5 78.6719 22.125C78.5156 21.75 78.4375 21.349 78.4375 20.9219V16.7344ZM81.5 20.9219H89.4375V16.7344H81.5V20.9219Z" fill="url(#paint0_linear_1_3)"/>
<path d="M12.2656 51.7969C13.7552 51.7969 14.901 51.3958 15.7031 50.5938C16.5052 49.7917 16.9062 48.6458 16.9062 47.1562V40.4375C16.9062 39.7083 16.8021 39.0573 16.5938 38.4844C16.3854 37.9115 16.0781 37.4271 15.6719 37.0312C15.276 36.625 14.7917 36.3177 14.2188 36.1094C13.6458 35.901 12.9948 35.7969 12.2656 35.7969H4.07812V51.7969H12.2656ZM0.875 55V32.5938H12.2656C13.4635 32.5938 14.5417 32.7812 15.5 33.1562C16.4688 33.5208 17.2917 34.0469 17.9688 34.7344C18.6562 35.4115 19.1823 36.2344 19.5469 37.2031C19.9219 38.1719 20.1094 39.25 20.1094 40.4375V47.1562C20.1094 48.3438 19.9219 49.4219 19.5469 50.3906C19.1823 51.3594 18.6562 52.1875 17.9688 52.875C17.2917 53.5521 16.4688 54.0781 15.5 54.4531C14.5417 54.8177 13.4635 55 12.2656 55H0.875ZM39.0156 48.25H28V51.9219H39.0156V55H28C27.5833 55 27.1875 54.9219 26.8125 54.7656C26.4375 54.599 26.1094 54.3802 25.8281 54.1094C25.5573 53.8281 25.3385 53.5 25.1719 53.125C25.0156 52.75 24.9375 52.349 24.9375 51.9219V41.4375C24.9375 41.0104 25.0156 40.6094 25.1719 40.2344C25.3385 39.8594 25.5573 39.5365 25.8281 39.2656C26.1094 38.9844 26.4375 38.7656 26.8125 38.6094C27.1875 38.4427 27.5833 38.3594 28 38.3594H35.9375C36.3646 38.3594 36.7656 38.4427 37.1406 38.6094C37.5156 38.7656 37.8385 38.9844 38.1094 39.2656C38.3906 39.5365 38.6094 39.8594 38.7656 40.2344C38.9323 40.6094 39.0156 41.0104 39.0156 41.4375V48.25ZM28 41.4375V45.1719H35.9375V41.4375H28ZM48.8906 55L42.2344 38.3594H45.4375L50.4844 51.3125L55.5469 38.3594H58.75L52.0938 55H48.8906ZM76.0469 48.25H65.0312V51.9219H76.0469V55H65.0312C64.6146 55 64.2188 54.9219 63.8438 54.7656C63.4688 54.599 63.1406 54.3802 62.8594 54.1094C62.5885 53.8281 62.3698 53.5 62.2031 53.125C62.0469 52.75 61.9688 52.349 61.9688 51.9219V41.4375C61.9688 41.0104 62.0469 40.6094 62.2031 40.2344C62.3698 39.8594 62.5885 39.5365 62.8594 39.2656C63.1406 38.9844 63.4688 38.7656 63.8438 38.6094C64.2188 38.4427 64.6146 38.3594 65.0312 38.3594H72.9688C73.3958 38.3594 73.7969 38.4427 74.1719 38.6094C74.5469 38.7656 74.8698 38.9844 75.1406 39.2656C75.4219 39.5365 75.6406 39.8594 75.7969 40.2344C75.9635 40.6094 76.0469 41.0104 76.0469 41.4375V48.25ZM65.0312 41.4375V45.1719H72.9688V41.4375H65.0312ZM84.25 31.9531V55H81.1875V31.9531H84.25ZM103.766 51.9219C103.766 52.349 103.682 52.75 103.516 53.125C103.359 53.5 103.141 53.8281 102.859 54.1094C102.589 54.3802 102.266 54.599 101.891 54.7656C101.526 54.9219 101.13 55 100.703 55H92.4375C92.0208 55 91.625 54.9219 91.25 54.7656C90.875 54.599 90.5469 54.3802 90.2656 54.1094C89.9948 53.8281 89.776 53.5 89.6094 53.125C89.4531 52.75 89.375 52.349 89.375 51.9219V41.4375C89.375 41.0104 89.4531 40.6094 89.6094 40.2344C89.776 39.8594 89.9948 39.5365 90.2656 39.2656C90.5469 38.9844 90.875 38.7656 91.25 38.6094C91.625 38.4427 92.0208 38.3594 92.4375 38.3594H100.703C101.13 38.3594 101.526 38.4427 101.891 38.6094C102.266 38.7656 102.589 38.9844 102.859 39.2656C103.141 39.5365 103.359 39.8594 103.516 40.2344C103.682 40.6094 103.766 41.0104 103.766 41.4375V51.9219ZM92.4375 41.4375V51.9219H100.703V41.4375H92.4375ZM123.625 51.9219C123.625 52.349 123.542 52.75 123.375 53.125C123.219 53.5 123 53.8281 122.719 54.1094C122.448 54.3802 122.125 54.599 121.75 54.7656C121.375 54.9219 120.974 55 120.547 55H111.969V61.7188H108.906V38.3594H111.969V41.1719C112 40.776 112.104 40.4115 112.281 40.0781C112.458 39.7344 112.682 39.4375 112.953 39.1875C113.224 38.9271 113.536 38.724 113.891 38.5781C114.255 38.4323 114.641 38.3594 115.047 38.3594H120.547C120.974 38.3594 121.375 38.4427 121.75 38.6094C122.125 38.7656 122.448 38.9844 122.719 39.2656C123 39.5365 123.219 39.8594 123.375 40.2344C123.542 40.6094 123.625 41.0104 123.625 41.4375V51.9219ZM120.547 51.9219V41.4375H111.969V51.9219H120.547ZM142.828 48.25H131.812V51.9219H142.828V55H131.812C131.396 55 131 54.9219 130.625 54.7656C130.25 54.599 129.922 54.3802 129.641 54.1094C129.37 53.8281 129.151 53.5 128.984 53.125C128.828 52.75 128.75 52.349 128.75 51.9219V41.4375C128.75 41.0104 128.828 40.6094 128.984 40.2344C129.151 39.8594 129.37 39.5365 129.641 39.2656C129.922 38.9844 130.25 38.7656 130.625 38.6094C131 38.4427 131.396 38.3594 131.812 38.3594H139.75C140.177 38.3594 140.578 38.4427 140.953 38.6094C141.328 38.7656 141.651 38.9844 141.922 39.2656C142.203 39.5365 142.422 39.8594 142.578 40.2344C142.745 40.6094 142.828 41.0104 142.828 41.4375V48.25ZM131.812 41.4375V45.1719H139.75V41.4375H131.812ZM151.031 41.4375V55H147.969V38.3594H151.031V41.2969C151.052 40.8906 151.146 40.5104 151.312 40.1562C151.479 39.7917 151.698 39.4792 151.969 39.2188C152.25 38.9479 152.573 38.7396 152.938 38.5938C153.302 38.4375 153.693 38.3594 154.109 38.3594H157.375C157.802 38.3594 158.198 38.4427 158.562 38.6094C158.938 38.7656 159.266 38.9844 159.547 39.2656C159.828 39.5365 160.047 39.8594 160.203 40.2344C160.37 40.6094 160.453 41.0104 160.453 41.4375V44.25H157.375V41.4375H151.031Z" fill="white"/>
<defs>
<linearGradient id="paint0_linear_1_3" x1="331.065" y1="64.7187" x2="26.2575" y2="-80.6321" gradientUnits="userSpaceOnUse">
<stop offset="0.0544483" stop-color="#406AFF" stop-opacity="0.2143"/>
<stop offset="0.354167" stop-color="#3BACE2" stop-opacity="0.5063"/>
<stop offset="0.708333" stop-color="#B936EE"/>
<stop offset="1" stop-color="#FF56F6"/>
</linearGradient>
</defs>
</svg>
