<svg width="120" height="47" viewBox="0 0 120 47" fill="none" xmlns="http://www.w3.org/2000/svg">
<path d="M11.1016 9.23438C11.4531 9.34375 11.7734 9.5 12.0625 9.70312C12.3516 9.90625 12.5977 10.168 12.8008 10.4883C13.0039 10.8008 13.1602 11.1719 13.2695 11.6016C13.3789 12.0312 13.4336 12.5234 13.4336 13.0781V13.9219C13.4336 16.6406 12.0742 18 9.35547 18H0.15625V1.19531H8.875C11.5938 1.19531 12.9531 2.55859 12.9531 5.28516V5.58984C12.9531 6.53516 12.8008 7.30859 12.4961 7.91016C12.1992 8.50391 11.7344 8.94531 11.1016 9.23438ZM2.51172 10.6758V15.6445H9.28516C9.91797 15.6445 10.375 15.4961 10.6562 15.1992C10.9375 14.9023 11.0781 14.4375 11.0781 13.8047V12.5039C11.0781 11.8633 10.9375 11.3984 10.6562 11.1094C10.375 10.8203 9.91797 10.6758 9.28516 10.6758H2.51172ZM2.51172 3.55078V8.33203H8.96875C9.54688 8.30859 9.96094 8.15234 10.2109 7.86328C10.4688 7.56641 10.5977 7.11328 10.5977 6.50391V5.40234C10.5977 4.76172 10.457 4.29297 10.1758 3.99609C9.89453 3.69922 9.4375 3.55078 8.80469 3.55078H2.51172ZM19.0938 7.82812V18H16.7969V5.51953H19.0938V7.72266C19.1094 7.41797 19.1797 7.13281 19.3047 6.86719C19.4297 6.59375 19.5938 6.35938 19.7969 6.16406C20.0078 5.96094 20.25 5.80469 20.5234 5.69531C20.7969 5.57812 21.0898 5.51953 21.4023 5.51953H23.8516C24.1719 5.51953 24.4688 5.58203 24.7422 5.70703C25.0234 5.82422 25.2695 5.98828 25.4805 6.19922C25.6914 6.40234 25.8555 6.64453 25.9727 6.92578C26.0977 7.20703 26.1602 7.50781 26.1602 7.82812V9.9375H23.8516V7.82812H19.0938ZM39.5898 12.9375H31.3281V15.6914H39.5898V18H31.3281C31.0156 18 30.7188 17.9414 30.4375 17.8242C30.1562 17.6992 29.9102 17.5352 29.6992 17.332C29.4961 17.1211 29.332 16.875 29.207 16.5938C29.0898 16.3125 29.0312 16.0117 29.0312 15.6914V7.82812C29.0312 7.50781 29.0898 7.20703 29.207 6.92578C29.332 6.64453 29.4961 6.40234 29.6992 6.19922C29.9102 5.98828 30.1562 5.82422 30.4375 5.70703C30.7188 5.58203 31.0156 5.51953 31.3281 5.51953H37.2812C37.6016 5.51953 37.9023 5.58203 38.1836 5.70703C38.4648 5.82422 38.707 5.98828 38.9102 6.19922C39.1211 6.40234 39.2852 6.64453 39.4023 6.92578C39.5273 7.20703 39.5898 7.50781 39.5898 7.82812V12.9375ZM31.3281 7.82812V10.6289H37.2812V7.82812H31.3281ZM43.4453 7.82812C43.4453 7.50781 43.5039 7.20703 43.6211 6.92578C43.7461 6.64453 43.9102 6.40234 44.1133 6.19922C44.3242 5.98828 44.5703 5.82422 44.8516 5.70703C45.1328 5.58203 45.4297 5.51953 45.7422 5.51953H52.1758V0.714844H54.4844V18H52.1758V15.8906C52.1523 16.1797 52.0742 16.4531 51.9414 16.7109C51.8086 16.9688 51.6367 17.1953 51.4258 17.3906C51.2227 17.5781 50.9883 17.7266 50.7227 17.8359C50.457 17.9453 50.1758 18 49.8789 18H45.7422C45.4297 18 45.1328 17.9414 44.8516 17.8242C44.5703 17.6992 44.3242 17.5352 44.1133 17.332C43.9102 17.1211 43.7461 16.875 43.6211 16.5938C43.5039 16.3125 43.4453 16.0117 43.4453 15.6914V7.82812ZM45.7422 15.6914H52.1758V7.82812H45.7422V15.6914ZM58.3281 12.5508C58.3281 12.2305 58.3867 11.9336 58.5039 11.6602C58.6289 11.3789 58.793 11.1328 58.9961 10.9219C59.207 10.7109 59.4531 10.5469 59.7344 10.4297C60.0156 10.3047 60.3125 10.2422 60.625 10.2422H66.5781V7.82812H59.043V5.51953H66.5781C66.8984 5.51953 67.1992 5.58203 67.4805 5.70703C67.7617 5.82422 68.0039 5.98828 68.207 6.19922C68.418 6.40234 68.582 6.64453 68.6992 6.92578C68.8242 7.20703 68.8867 7.50781 68.8867 7.82812V18H66.5781V15.8906C66.5547 16.1797 66.4766 16.4531 66.3438 16.7109C66.2109 16.9688 66.0391 17.1953 65.8281 17.3906C65.625 17.5781 65.3906 17.7266 65.125 17.8359C64.8594 17.9453 64.5781 18 64.2812 18H60.625C60.3125 18 60.0156 17.9414 59.7344 17.8242C59.4531 17.6992 59.207 17.5352 58.9961 17.332C58.793 17.1211 58.6289 16.875 58.5039 16.5938C58.3867 16.3125 58.3281 16.0117 58.3281 15.6914V12.5508ZM60.625 15.6914H66.5781V12.5508H60.625V15.6914Z" fill="url(#paint0_linear_1_3)"/>
<path d="M8.69922 38.5977C9.81641 38.5977 10.6758 38.2969 11.2773 37.6953C11.8789 37.0938 12.1797 36.2344 12.1797 35.1172V30.0781C12.1797 29.5312 12.1016 29.043 11.9453 28.6133C11.7891 28.1836 11.5586 27.8203 11.2539 27.5234C10.957 27.2188 10.5938 26.9883 10.1641 26.832C9.73438 26.6758 9.24609 26.5977 8.69922 26.5977H2.55859V38.5977H8.69922ZM0.15625 41V24.1953H8.69922C9.59766 24.1953 10.4062 24.3359 11.125 24.6172C11.8516 24.8906 12.4688 25.2852 12.9766 25.8008C13.4922 26.3086 13.8867 26.9258 14.1602 27.6523C14.4414 28.3789 14.582 29.1875 14.582 30.0781V35.1172C14.582 36.0078 14.4414 36.8164 14.1602 37.543C13.8867 38.2695 13.4922 38.8906 12.9766 39.4062C12.4688 39.9141 11.8516 40.3086 11.125 40.5898C10.4062 40.8633 9.59766 41 8.69922 41H0.15625ZM28.7617 35.9375H20.5V38.6914H28.7617V41H20.5C20.1875 41 19.8906 40.9414 19.6094 40.8242C19.3281 40.6992 19.082 40.5352 18.8711 40.332C18.668 40.1211 18.5039 39.875 18.3789 39.5938C18.2617 39.3125 18.2031 39.0117 18.2031 38.6914V30.8281C18.2031 30.5078 18.2617 30.207 18.3789 29.9258C18.5039 29.6445 18.668 29.4023 18.8711 29.1992C19.082 28.9883 19.3281 28.8242 19.6094 28.707C19.8906 28.582 20.1875 28.5195 20.5 28.5195H26.4531C26.7734 28.5195 27.0742 28.582 27.3555 28.707C27.6367 28.8242 27.8789 28.9883 28.082 29.1992C28.293 29.4023 28.457 29.6445 28.5742 29.9258C28.6992 30.207 28.7617 30.5078 28.7617 30.8281V35.9375ZM20.5 30.8281V33.6289H26.4531V30.8281H20.5ZM36.168 41L31.1758 28.5195H33.5781L37.3633 38.2344L41.1602 28.5195H43.5625L38.5703 41H36.168ZM56.5352 35.9375H48.2734V38.6914H56.5352V41H48.2734C47.9609 41 47.6641 40.9414 47.3828 40.8242C47.1016 40.6992 46.8555 40.5352 46.6445 40.332C46.4414 40.1211 46.2773 39.875 46.1523 39.5938C46.0352 39.3125 45.9766 39.0117 45.9766 38.6914V30.8281C45.9766 30.5078 46.0352 30.207 46.1523 29.9258C46.2773 29.6445 46.4414 29.4023 46.6445 29.1992C46.8555 28.9883 47.1016 28.8242 47.3828 28.707C47.6641 28.582 47.9609 28.5195 48.2734 28.5195H54.2266C54.5469 28.5195 54.8477 28.582 55.1289 28.707C55.4102 28.8242 55.6523 28.9883 55.8555 29.1992C56.0664 29.4023 56.2305 29.6445 56.3477 29.9258C56.4727 30.207 56.5352 30.5078 56.5352 30.8281V35.9375ZM48.2734 30.8281V33.6289H54.2266V30.8281H48.2734ZM62.6875 23.7148V41H60.3906V23.7148H62.6875ZM77.3242 38.6914C77.3242 39.0117 77.2617 39.3125 77.1367 39.5938C77.0195 39.875 76.8555 40.1211 76.6445 40.332C76.4414 40.5352 76.1992 40.6992 75.918 40.8242C75.6445 40.9414 75.3477 41 75.0273 41H68.8281C68.5156 41 68.2188 40.9414 67.9375 40.8242C67.6562 40.6992 67.4102 40.5352 67.1992 40.332C66.9961 40.1211 66.832 39.875 66.707 39.5938C66.5898 39.3125 66.5312 39.0117 66.5312 38.6914V30.8281C66.5312 30.5078 66.5898 30.207 66.707 29.9258C66.832 29.6445 66.9961 29.4023 67.1992 29.1992C67.4102 28.9883 67.6562 28.8242 67.9375 28.707C68.2188 28.582 68.5156 28.5195 68.8281 28.5195H75.0273C75.3477 28.5195 75.6445 28.582 75.918 28.707C76.1992 28.8242 76.4414 28.9883 76.6445 29.1992C76.8555 29.4023 77.0195 29.6445 77.1367 29.9258C77.2617 30.207 77.3242 30.5078 77.3242 30.8281V38.6914ZM68.8281 30.8281V38.6914H75.0273V30.8281H68.8281ZM92.2188 38.6914C92.2188 39.0117 92.1562 39.3125 92.0312 39.5938C91.9141 39.875 91.75 40.1211 91.5391 40.332C91.3359 40.5352 91.0938 40.6992 90.8125 40.8242C90.5312 40.9414 90.2305 41 89.9102 41H83.4766V46.0391H81.1797V28.5195H83.4766V30.6289C83.5 30.332 83.5781 30.0586 83.7109 29.8086C83.8438 29.5508 84.0117 29.3281 84.2148 29.1406C84.418 28.9453 84.6523 28.793 84.918 28.6836C85.1914 28.5742 85.4805 28.5195 85.7852 28.5195H89.9102C90.2305 28.5195 90.5312 28.582 90.8125 28.707C91.0938 28.8242 91.3359 28.9883 91.5391 29.1992C91.75 29.4023 91.9141 29.6445 92.0312 29.9258C92.1562 30.207 92.2188 30.5078 92.2188 30.8281V38.6914ZM89.9102 38.6914V30.8281H83.4766V38.6914H89.9102ZM106.621 35.9375H98.3594V38.6914H106.621V41H98.3594C98.0469 41 97.75 40.9414 97.4688 40.8242C97.1875 40.6992 96.9414 40.5352 96.7305 40.332C96.5273 40.1211 96.3633 39.875 96.2383 39.5938C96.1211 39.3125 96.0625 39.0117 96.0625 38.6914V30.8281C96.0625 30.5078 96.1211 30.207 96.2383 29.9258C96.3633 29.6445 96.5273 29.4023 96.7305 29.1992C96.9414 28.9883 97.1875 28.8242 97.4688 28.707C97.75 28.582 98.0469 28.5195 98.3594 28.5195H104.312C104.633 28.5195 104.934 28.582 105.215 28.707C105.496 28.8242 105.738 28.9883 105.941 29.1992C106.152 29.4023 106.316 29.6445 106.434 29.9258C106.559 30.207 106.621 30.5078 106.621 30.8281V35.9375ZM98.3594 30.8281V33.6289H104.312V30.8281H98.3594ZM112.773 30.8281V41H110.477V28.5195H112.773V30.7227C112.789 30.418 112.859 30.1328 112.984 29.8672C113.109 29.5938 113.273 29.3594 113.477 29.1641C113.688 28.9609 113.93 28.8047 114.203 28.6953C114.477 28.5781 114.77 28.5195 115.082 28.5195H117.531C117.852 28.5195 118.148 28.582 118.422 28.707C118.703 28.8242 118.949 28.9883 119.16 29.1992C119.371 29.4023 119.535 29.6445 119.652 29.9258C119.777 30.207 119.84 30.5078 119.84 30.8281V32.9375H117.531V30.8281H112.773Z" fill="white"/>
<defs>
<linearGradient id="paint0_linear_1_3" x1="204.5" y1="54.5" x2="-2" y2="-18" gradientUnits="userSpaceOnUse">
<stop offset="0.0544483" stop-color="#406AFF" stop-opacity="0.2143"/>
<stop offset="0.354167" stop-color="#3BACE2" stop-opacity="0.5063"/>
<stop offset="0.708333" stop-color="#B936EE"/>
<stop offset="1" stop-color="#FF56F6"/>
</linearGradient>
</defs>
</svg>
