<svg width="195" height="54" viewBox="0 0 195 54" fill="none" xmlns="http://www.w3.org/2000/svg">
<path d="M15.4688 11.3125C15.9375 11.4583 16.3646 11.6667 16.75 11.9375C17.1354 12.2083 17.4635 12.5573 17.7344 12.9844C18.0052 13.401 18.2135 13.8958 18.3594 14.4688C18.5052 15.0417 18.5781 15.6979 18.5781 16.4375V17.5625C18.5781 21.1875 16.7656 23 13.1406 23H0.875V0.59375H12.5C16.125 0.59375 17.9375 2.41146 17.9375 6.04688V6.45312C17.9375 7.71354 17.7344 8.74479 17.3281 9.54688C16.9323 10.3385 16.3125 10.9271 15.4688 11.3125ZM4.01562 13.2344V19.8594H13.0469C13.8906 19.8594 14.5 19.6615 14.875 19.2656C15.25 18.8698 15.4375 18.25 15.4375 17.4062V15.6719C15.4375 14.8177 15.25 14.1979 14.875 13.8125C14.5 13.4271 13.8906 13.2344 13.0469 13.2344H4.01562ZM4.01562 3.73438V10.1094H12.625C13.3958 10.0781 13.9479 9.86979 14.2812 9.48438C14.625 9.08854 14.7969 8.48438 14.7969 7.67188V6.20312C14.7969 5.34896 14.6094 4.72396 14.2344 4.32812C13.8594 3.93229 13.25 3.73438 12.4062 3.73438H4.01562ZM41.0781 8.59375C41.0781 11.7188 39.7448 13.5 37.0781 13.9375L41.2969 23H37.75L33.5938 14.0469H26.5781V23H23.375V0.59375H35.6406C39.2656 0.59375 41.0781 2.41146 41.0781 6.04688V8.59375ZM26.5781 10.8438H35.4688C36.3229 10.8438 36.9375 10.6562 37.3125 10.2812C37.6875 9.90625 37.875 9.29167 37.875 8.4375V6.20312C37.875 5.34896 37.6875 4.73438 37.3125 4.35938C36.9375 3.98438 36.3229 3.79688 35.4688 3.79688H26.5781V10.8438ZM46.4375 0.59375H62.7656V3.79688H49.6406V10.2031H60.8438V13.4062H49.6406V19.7969H62.7656V23H46.4375V0.59375ZM78.9531 19.7969C80.4427 19.7969 81.5885 19.3958 82.3906 18.5938C83.1927 17.7917 83.5938 16.6458 83.5938 15.1562V8.4375C83.5938 7.70833 83.4896 7.05729 83.2812 6.48438C83.0729 5.91146 82.7656 5.42708 82.3594 5.03125C81.9635 4.625 81.4792 4.31771 80.9062 4.10938C80.3333 3.90104 79.6823 3.79688 78.9531 3.79688H70.7656V19.7969H78.9531ZM67.5625 23V0.59375H78.9531C80.151 0.59375 81.2292 0.78125 82.1875 1.15625C83.1562 1.52083 83.9792 2.04688 84.6562 2.73438C85.3438 3.41146 85.8698 4.23438 86.2344 5.20312C86.6094 6.17188 86.7969 7.25 86.7969 8.4375V15.1562C86.7969 16.3438 86.6094 17.4219 86.2344 18.3906C85.8698 19.3594 85.3438 20.1875 84.6562 20.875C83.9792 21.5521 83.1562 22.0781 82.1875 22.4531C81.2292 22.8177 80.151 23 78.9531 23H67.5625ZM101.859 0.59375L110.5 23H107.297L105.312 17.8438H95.2031L93.2188 23H90.0156L98.6562 0.59375H101.859ZM96.4219 14.6406H104.078L100.266 4.76562L96.4219 14.6406Z" fill="url(#paint0_linear_1_3)"/>
<path d="M12.2656 50.7969C13.7552 50.7969 14.901 50.3958 15.7031 49.5938C16.5052 48.7917 16.9062 47.6458 16.9062 46.1562V39.4375C16.9062 38.7083 16.8021 38.0573 16.5938 37.4844C16.3854 36.9115 16.0781 36.4271 15.6719 36.0312C15.276 35.625 14.7917 35.3177 14.2188 35.1094C13.6458 34.901 12.9948 34.7969 12.2656 34.7969H4.07812V50.7969H12.2656ZM0.875 54V31.5938H12.2656C13.4635 31.5938 14.5417 31.7812 15.5 32.1562C16.4688 32.5208 17.2917 33.0469 17.9688 33.7344C18.6562 34.4115 19.1823 35.2344 19.5469 36.2031C19.9219 37.1719 20.1094 38.25 20.1094 39.4375V46.1562C20.1094 47.3438 19.9219 48.4219 19.5469 49.3906C19.1823 50.3594 18.6562 51.1875 17.9688 51.875C17.2917 52.5521 16.4688 53.0781 15.5 53.4531C14.5417 53.8177 13.4635 54 12.2656 54H0.875ZM25.25 31.5938H41.5781V34.7969H28.4531V41.2031H39.6562V44.4062H28.4531V50.7969H41.5781V54H25.25V31.5938ZM53.0938 54L44.4531 31.5938H47.8906L54.8594 50.0312L61.8438 31.5938H65.2656L56.625 54H53.0938ZM69.0938 31.5938H85.4219V34.7969H72.2969V41.2031H83.5V44.4062H72.2969V50.7969H85.4219V54H69.0938V31.5938ZM93.4219 31.5938V50.7969H104.938V54H90.2188V31.5938H93.4219ZM127.984 50.7969C127.984 51.2344 127.901 51.651 127.734 52.0469C127.568 52.4323 127.339 52.7708 127.047 53.0625C126.755 53.3542 126.411 53.5833 126.016 53.75C125.63 53.9167 125.219 54 124.781 54H111.984C111.547 54 111.13 53.9167 110.734 53.75C110.349 53.5833 110.01 53.3542 109.719 53.0625C109.427 52.7708 109.198 52.4323 109.031 52.0469C108.865 51.651 108.781 51.2344 108.781 50.7969V34.7969C108.781 34.3594 108.865 33.9479 109.031 33.5625C109.198 33.1667 109.427 32.8281 109.719 32.5469C110.01 32.2552 110.349 32.026 110.734 31.8594C111.13 31.6823 111.547 31.5938 111.984 31.5938H124.781C125.219 31.5938 125.63 31.6823 126.016 31.8594C126.411 32.026 126.755 32.2552 127.047 32.5469C127.339 32.8281 127.568 33.1667 127.734 33.5625C127.901 33.9479 127.984 34.3594 127.984 34.7969V50.7969ZM111.984 34.7969V50.7969H124.781V34.7969H111.984ZM133.75 54V31.5938H146.016C149.641 31.5938 151.453 33.4115 151.453 37.0469V40.2344C151.453 43.8698 149.641 45.6875 146.016 45.6875H136.953V54H133.75ZM136.953 42.4844H145.844C146.698 42.4844 147.312 42.2969 147.688 41.9219C148.062 41.5469 148.25 40.9323 148.25 40.0781V37.2031C148.25 36.349 148.062 35.7344 147.688 35.3594C147.312 34.9844 146.698 34.7969 145.844 34.7969H136.953V42.4844ZM155.938 31.5938H172.266V34.7969H159.141V41.2031H170.344V44.4062H159.141V50.7969H172.266V54H155.938V31.5938ZM194.766 39.5938C194.766 42.7188 193.432 44.5 190.766 44.9375L194.984 54H191.438L187.281 45.0469H180.266V54H177.062V31.5938H189.328C192.953 31.5938 194.766 33.4115 194.766 37.0469V39.5938ZM180.266 41.8438H189.156C190.01 41.8438 190.625 41.6562 191 41.2812C191.375 40.9062 191.562 40.2917 191.562 39.4375V37.2031C191.562 36.349 191.375 35.7344 191 35.3594C190.625 34.9844 190.01 34.7969 189.156 34.7969H180.266V41.8438Z" fill="white"/>
<defs>
<linearGradient id="paint0_linear_1_3" x1="366.036" y1="67.125" x2="35.4698" y2="-98.3519" gradientUnits="userSpaceOnUse">
<stop offset="0.0544483" stop-color="#406AFF" stop-opacity="0.2143"/>
<stop offset="0.354167" stop-color="#3BACE2" stop-opacity="0.5063"/>
<stop offset="0.708333" stop-color="#B936EE"/>
<stop offset="1" stop-color="#FF56F6"/>
</linearGradient>
</defs>
</svg>
